<svg xmlns="http://www.w3.org/2000/svg" width="32" height="30" viewBox="0 0 32 30">
    <g fill="none" fill-rule="evenodd">
        <path d="M-3-5h39v39H-3V-5zm16.25 8.125h6.5v3.25h-6.5v-3.25zm0 0h6.5v3.25h-6.5v-3.25z"/>
        <path fill="#A1A9B3" fill-rule="nonzero" d="M12.8 21.667V20H1.616L1.6 26.667C1.6 28.517 3.024 30 4.8 30h22.4c1.776 0 3.2-1.483 3.2-3.333V20H19.2v1.667h-6.4zm16-15h-6.416V3.333L19.184 0h-6.4l-3.2 3.333v3.334H3.2C1.44 6.667 0 8.167 0 10v5c0 1.85 1.424 3.333 3.2 3.333h9.6V15h6.4v3.333h9.6c1.76 0 3.2-1.5 3.2-3.333v-5c0-1.833-1.44-3.333-3.2-3.333zm-9.6 0h-6.4V3.333h6.4v3.334z"/>
    </g>
</svg>
