<svg xmlns="http://www.w3.org/2000/svg" width="32" height="32" viewBox="0 0 32 32">
    <g fill="none" fill-rule="evenodd">
        <path d="M-3-3h38v38H-3z"/>
        <path fill="#A1A9B3" fill-rule="nonzero" d="M11.84 13.6L19.472.384A16.489 16.489 0 0 0 16 0C12.16 0 8.64 1.36 5.888 3.6l5.856 10.16.096-.16zm19.424-2.4a16.04 16.04 0 0 0-9.6-10.144L15.808 11.2h15.456zm.416 1.6H19.696l.464.8 7.616 13.2A15.857 15.857 0 0 0 32 16c0-1.104-.112-2.16-.32-3.2zM10.464 16L4.224 5.2C1.616 8.048 0 11.824 0 16c0 1.104.112 2.16.32 3.2h11.984l-1.84-3.2zM.736 20.8a16.04 16.04 0 0 0 9.6 10.144L16.192 20.8H.736zm18.032 0l-6.24 10.816c1.12.24 2.272.384 3.472.384 3.84 0 7.36-1.36 10.112-3.6l-5.856-10.16-1.488 2.56z"/>
    </g>
</svg>
