<svg xmlns="http://www.w3.org/2000/svg" width="19" height="19" viewBox="0 0 19 19">
    <path fill="#72767D" fill-rule="evenodd" d="M9.18 15a5.74 5.74 0 0 0 2.94-.78 5.87 5.87 0 0 0 2.1-2.1A5.74 5.74 0 0 0 15 9.18a5.74 5.74 0 0 0-.78-2.94 5.87 5.87 0 0 0-2.1-2.1 5.74 5.74 0 0 0-2.94-.78 5.74 5.74 0 0 0-2.94.78 5.87 5.87 0 0 0-2.1 2.1 5.74 5.74 0 0 0-.78 2.94c0 1.067.26 2.047.78 2.94a5.87 5.87 0 0 0 2.1 2.1 5.74 5.74 0 0 0 2.94.78zm7.46-6.64h1.72V10h-1.72a7.246 7.246 0 0 1-1.1 3.17 7.588 7.588 0 0 1-2.37 2.37 7.246 7.246 0 0 1-3.17 1.1v1.72H8.36v-1.72a7.176 7.176 0 0 1-3.16-1.1 7.626 7.626 0 0 1-2.36-2.37A7.447 7.447 0 0 1 1.72 10H0V8.36h1.72a7.447 7.447 0 0 1 1.12-3.17A7.626 7.626 0 0 1 5.2 2.82a7.176 7.176 0 0 1 3.16-1.1V0H10v1.72a7.246 7.246 0 0 1 3.17 1.1 7.588 7.588 0 0 1 2.37 2.37c.613.967.98 2.023 1.1 3.17z"/>
</svg>
