<svg width="30" height="30" xmlns="http://www.w3.org/2000/svg">

 <g>
  <title>background</title>
  <rect fill="none" id="canvas_background" height="402" width="582" y="-1" x="-1"/>
 </g>
 <g>
  <title>Layer 1</title>
  <path fill="#a1a9b3" id="svg_2" d="m3,0l2,0a3,3 0 0 1 3,3l0,2a3,3 0 0 1 -3,3l-2,0a3,3 0 0 1 -3,-3l0,-2a3,3 0 0 1 3,-3zm0,11l2,0a3,3 0 0 1 3,3l0,2a3,3 0 0 1 -3,3l-2,0a3,3 0 0 1 -3,-3l0,-2a3,3 0 0 1 3,-3zm0,11l2,0a3,3 0 0 1 3,3l0,2a3,3 0 0 1 -3,3l-2,0a3,3 0 0 1 -3,-3l0,-2a3,3 0 0 1 3,-3zm11,-22l2,0a3,3 0 0 1 3,3l0,2a3,3 0 0 1 -3,3l-2,0a3,3 0 0 1 -3,-3l0,-2a3,3 0 0 1 3,-3zm0,11l2,0a3,3 0 0 1 3,3l0,2a3,3 0 0 1 -3,3l-2,0a3,3 0 0 1 -3,-3l0,-2a3,3 0 0 1 3,-3zm0,11l2,0a3,3 0 0 1 3,3l0,2a3,3 0 0 1 -3,3l-2,0a3,3 0 0 1 -3,-3l0,-2a3,3 0 0 1 3,-3zm11,-22l2,0a3,3 0 0 1 3,3l0,2a3,3 0 0 1 -3,3l-2,0a3,3 0 0 1 -3,-3l0,-2a3,3 0 0 1 3,-3zm0,11l2,0a3,3 0 0 1 3,3l0,2a3,3 0 0 1 -3,3l-2,0a3,3 0 0 1 -3,-3l0,-2a3,3 0 0 1 3,-3zm0,11l2,0a3,3 0 0 1 3,3l0,2a3,3 0 0 1 -3,3l-2,0a3,3 0 0 1 -3,-3l0,-2a3,3 0 0 1 3,-3z"/>
 </g>
</svg>