<svg xmlns="http://www.w3.org/2000/svg" width="34" height="31" viewBox="0 0 34 31">
    <g fill="#A1A9B3" fill-rule="nonzero">
        <path d="M33.636 14.127L17.699.261a1.059 1.059 0 0 0-1.392 0L10.625 5.2v-2A2.13 2.13 0 0 0 8.5 1.066 2.13 2.13 0 0 0 6.375 3.2v5.698l-6.01 5.229a1.072 1.072 0 0 0-.105 1.506c.386.444 1.056.49 1.5.107L17 2.48l15.238 13.26a1.061 1.061 0 0 0 1.498-.107c.39-.446.34-1.116-.1-1.506z"/>
        <path d="M18.819 8.477a2.068 2.068 0 0 0-2.64 0l-10.417 8.57A2.09 2.09 0 0 0 5 18.666v10.243C5 30.063 5.933 31 7.083 31h6.25V20.545h8.334V31h6.25A2.09 2.09 0 0 0 30 28.91V18.665c0-.632-.281-1.221-.765-1.617L18.82 8.477z"/>
    </g>
</svg>
