<svg xmlns="http://www.w3.org/2000/svg" width="32" height="31" viewBox="0 0 32 31">
    <g fill="none" fill-rule="nonzero">
        <path fill="#FFF" d="M10.5 19.388V9.745a2.797 2.797 0 0 1 2.789-2.804H20V3.804A2.797 2.797 0 0 0 17.211 1H3.79A2.797 2.797 0 0 0 1 3.804v9.643C1 18.723 5.253 23 10.5 23c.233 0 .464-.009.693-.025a9.57 9.57 0 0 1-.693-3.587z"/>
        <g fill="#A1A9B3">
            <path d="M10.963 24.809C4.918 24.809 0 19.921 0 13.913V3.868C0 1.737 1.745.002 3.89.002h14.146c2.144 0 3.889 1.734 3.889 3.866v3.267a.947.947 0 0 1-.95.945h-7.073c-1.097 0-1.99.887-1.99 1.977v10.045a8.91 8.91 0 0 0 .662 3.381.94.94 0 0 1-.074.854.95.95 0 0 1-.738.443c-.269.02-.537.029-.8.029zM3.889 1.891c-1.097 0-1.989.887-1.989 1.977v10.045c0 4.772 3.753 8.689 8.478 8.989a10.812 10.812 0 0 1-.366-2.8V10.057c0-2.132 1.745-3.866 3.89-3.866h6.123V3.868c0-1.09-.893-1.977-1.99-1.977H3.89z"/>
            <path d="M20.975 30.998c-6.045 0-10.962-4.888-10.962-10.896V10.057c0-2.132 1.744-3.866 3.889-3.866h14.146c2.145 0 3.89 1.734 3.89 3.866v3.262a.947.947 0 0 1-.95.945.947.947 0 0 1-.95-.945v-3.262c0-1.09-.893-1.977-1.99-1.977H13.902c-1.097 0-1.99.887-1.99 1.977v10.045c0 4.966 4.066 9.007 9.063 9.007 4.997 0 9.063-4.04 9.063-9.007v-1.508c0-.522.425-.945.95-.945.524 0 .95.423.95.945v1.508c0 6.008-4.918 10.896-10.963 10.896z"/>
            <path d="M17.222 17.128h-1.9a.947.947 0 0 1-.95-.944c0-.522.426-.945.95-.945h1.9c.525 0 .95.423.95.945a.947.947 0 0 1-.95.944zM26.628 17.128h-1.9a.947.947 0 0 1-.95-.944c0-.522.425-.945.95-.945h1.9c.524 0 .95.423.95.945a.947.947 0 0 1-.95.944zM20.975 25.912c-1.933 0-3.649-1.092-4.372-2.78a.942.942 0 0 1 .503-1.239.952.952 0 0 1 1.246.5c.417.975 1.471 1.63 2.623 1.63 1.152 0 2.206-.655 2.623-1.63a.952.952 0 0 1 1.246-.5.942.942 0 0 1 .502 1.239c-.722 1.689-2.438 2.78-4.371 2.78zM7.21 10.94h-1.9a.947.947 0 0 1-.95-.945c0-.522.425-.944.95-.944h1.9c.525 0 .95.422.95.944a.947.947 0 0 1-.95.944zM7.465 19.723a.951.951 0 0 1-.372-.075.942.942 0 0 1-.502-1.239c.722-1.689 2.438-2.78 4.372-2.78.524 0 .95.423.95.944a.947.947 0 0 1-.95.945c-1.152 0-2.206.655-2.624 1.63a.95.95 0 0 1-.874.575z"/>
        </g>
    </g>
</svg>
